<svg xmlns="http://www.w3.org/2000/svg" xmlns:svg="http://www.w3.org/2000/svg" id="svg52" width="512pt" height="512pt" version="1.1" viewBox="0 -27 512.001 512"><metadata id="metadata58"/><path id="path2" fill="#7daea3" fill-opacity="1" d="m54.738281 433.914062v-119.679687c0-12.894531 10.453125-23.347656 23.347657-23.347656h406.429687c15.179687 0 27.484375 12.304687 27.484375 27.480469v114.027343c0 13.734375-11.136719 24.867188-24.871094 24.867188h-409.042968c-12.894532 0-23.347657-10.453125-23.347657-23.347657zm0 0"/><path id="path4" fill="#cccacb" d="m512 433.214844v-36.035156c0 13.28125-10.765625 24.046874-24.046875 24.046874h-409.167969c-13.28125 0-24.046875-10.765624-24.046875-24.046874v36.035156c0 13.28125 10.765625 24.046875 24.046875 24.046875h409.167969c13.28125 0 24.046875-10.765625 24.046875-24.046875zm0 0"/><path id="path6" fill="#d3869b" fill-opacity="1" d="m385.992188 457.261719v-166.375h98.867187c14.988281 0 27.140625 12.148437 27.140625 27.140625v112.097656c0 14.988281-12.148438 27.136719-27.140625 27.136719zm0 0"/><path id="path8" fill="#be7a8d" fill-opacity="1" d="m512 433.214844v-36.035156c0 13.28125-10.765625 24.046874-24.046875 24.046874h-101.960937v36.035157h101.960937c13.28125 0 24.046875-10.765625 24.046875-24.046875zm0 0"/><path id="path10" fill="#07ff00" fill-opacity="0" d="m385.992188 290.886719v166.375h-126.003907v-166.375zm0 0"/><path id="path12" fill="#729d94" fill-opacity="1" d="m 259.98437,421.22656 126.00782,0 v 36.03516 H 259.98437 Z"/><path id="path14" fill="#89b482" fill-opacity="1" d="m259.984375 290.886719v166.378906h-126.003906v-166.378906zm0 0"/><path id="path16" fill="#7da377" fill-opacity="1" d="m133.980469 421.226562h126.003906v36.035157h-126.003906zm0 0"/><path id="path18" fill="#dedcdd" d="m91.464844 450.25-84.625-84.625c-9.121094-9.117188-9.121094-23.902344 0-33.019531l290.3125-290.3125c9.117187-9.121094 23.902344-9.121094 33.019531 0l83.5 83.496093c9.742187 9.742188 9.742187 25.535157 0 35.277344l-289.1875 289.183594c-9.117187 9.121094-23.902344 9.121094-33.019531 0zm0 0"/><path id="path20" fill="#cccacb" d="m414.304688 126.421875-25.480469-25.480469c9.390625 9.394532 9.390625 24.617188 0 34.011719l-289.328125 289.324219c-9.390625 9.390625-24.617188 9.390625-34.007813 0l25.480469 25.480468c9.390625 9.390626 24.617188 9.390626 34.007812 0l289.328126-289.324218c9.390624-9.394532 9.390624-24.617188 0-34.011719zm0 0"/><path id="path22" fill="#89b482" fill-opacity="1" d="m342.207031 232.527344-117.644531-117.648438 72.589844-72.585937c9.117187-9.121094 23.902344-9.121094 33.019531 0l83.582031 83.578125c9.695313 9.695312 9.695313 25.417968 0 35.113281zm0 0"/><path id="path24" fill="#7da377" fill-opacity="1" d="m414.304688 126.421875-25.480469-25.480469c9.390625 9.394532 9.390625 24.617188 0 34.011719l-72.097657 72.09375 25.480469 25.480469 72.097657-72.09375c9.390624-9.394532 9.390624-24.617188 0-34.011719zm0 0"/><path id="path26" fill="#a9b665" fill-opacity="1" d="m224.5625 114.878906 117.644531 117.644532-89.097656 89.101562-117.648437-117.648438zm0 0"/><path id="path28" fill="#99a45d" fill-opacity="1" d="m227.625 296.148438 89.097656-89.101563 25.480469 25.480469-89.097656 89.101562zm0 0"/><path id="path30" fill="#d8a657" fill-opacity="1" d="m135.464844 203.980469 117.644531 117.644531-89.097656 89.097656-117.648438-117.644531zm0 0"/><path id="path32" fill="#c29651" fill-opacity="1" d="m138.523438 385.246094 89.097656-89.097656 25.484375 25.480468-89.101563 89.097656zm0 0"/><path id="path34" fill="#d4be98" fill-opacity="1" d="m143.316406 457.261719h-119.679687c-12.894531 0-23.347657-10.453125-23.347657-23.347657v-410.5625c0-12.898437 10.453126-23.351562 23.347657-23.351562h119.679687c12.894532 0 23.347656 10.453125 23.347656 23.351562v410.5625c.003907 12.894532-10.453124 23.347657-23.347656 23.347657zm0 0"/><path id="path36" fill="#bfab8a" fill-opacity="1" d="m143.316406 0h-25.222656c7.429688 4.175781 12.457031 12.128906 12.457031 21.261719v414.742187c0 9.128906-5.027343 17.082032-12.457031 21.257813h25.222656c12.894532 0 23.351563-10.453125 23.351563-23.347657v-410.5625c0-12.898437-10.457031-23.351562-23.351563-23.351562zm0 0"/><path id="path38" fill="#d8a657" fill-opacity="1" d="m166.667969 126.007812h-166.378907v-102.65625c0-12.898437 10.453126-23.351562 23.347657-23.351562h119.679687c12.894532 0 23.347656 10.453125 23.347656 23.351562v102.65625zm0 0"/><path id="path40" fill="#c29651" fill-opacity="1" d="m143.316406 0h-25.222656c7.429688 4.175781 12.457031 12.128906 12.457031 21.261719v104.746093h36.117188v-102.65625c0-12.898437-10.457031-23.351562-23.351563-23.351562zm0 0"/><path id="path42" fill="#e78a4e" fill-opacity="1" d="m.289062 126.007812h166.378907v126.003907h-166.378907zm0 0"/><path id="path44" fill="#d07e49" fill-opacity="1" d="m130.546875 126.007812h36.121094v126.003907h-36.121094zm0 0"/><path id="path46" fill="#ea6962" fill-opacity="1" d="m.289062 252.011719h166.378907v126.007812h-166.378907zm0 0"/><path id="path48" fill="#d2615b" fill-opacity="1" d="m130.546875 252.011719h36.121094v126.007812h-36.121094zm0 0"/><path id="path50" fill="#665c54" fill-opacity="1" d="m95.832031 410.1875h-24.710937c-4.265625 0-7.722656 3.457031-7.722656 7.722656 0 4.261719 3.457031 7.71875 7.722656 7.71875h24.710937c4.265625 0 7.722657-3.457031 7.722657-7.71875 0-4.265625-3.457032-7.722656-7.722657-7.722656zm0 0"/></svg>